<?xml version="1.0" encoding="UTF-8"?>
<svg version="1.1" xmlns="http://www.w3.org/2000/svg" width="1000" height="1000">
<path d="M0 0 C45.30659122 -0.0343057 90.61318383 -0.06613768 135.91978455 -0.08468628 C136.59248408 -0.08496239 137.26518361 -0.08523851 137.95826798 -0.08552299 C152.58488654 -0.0915116 167.21150525 -0.09705156 181.83812416 -0.10213066 C189.01309517 -0.1046249 196.18806615 -0.10721806 203.36303711 -0.10986328 C204.07695684 -0.1101248 204.79087657 -0.11038632 205.52643024 -0.11065576 C228.58320446 -0.11914798 251.63996875 -0.13414754 274.69673697 -0.15259444 C298.43028389 -0.1715479 322.16382532 -0.1837912 345.89737967 -0.18782998 C349.26500054 -0.18840612 352.63262139 -0.18905739 356.00024223 -0.18975449 C356.99424106 -0.18995676 356.99424106 -0.18995676 358.00832067 -0.19016311 C369.23894413 -0.19265208 380.46954884 -0.20325004 391.70016485 -0.21583293 C401.74048494 -0.22650112 411.78079053 -0.22957869 421.82111586 -0.22700275 C427.59190119 -0.22573656 433.36263705 -0.22751256 439.13341331 -0.23841095 C460.24029672 -0.27619577 481.30504744 -0.19155518 502.38792419 0.90481567 C503.1616398 0.94477413 503.93535541 0.98473258 504.73251695 1.0259019 C559.29493761 3.9304218 613.68298999 13.645316 663 38 C663.66128906 38.32178223 664.32257812 38.64356445 665.00390625 38.97509766 C679.35546848 46.01843986 693.02419609 55.43951837 705 66 C705.48662109 66.42635742 705.97324219 66.85271484 706.47460938 67.29199219 C735.68825469 93.00666477 754.40292378 126.97676889 762.25 165 C762.40106201 165.7209082 762.55212402 166.44181641 762.70776367 167.18457031 C765.90164808 183.807901 766.37335648 200.5605801 766.3125 217.4375 C766.30976578 219.014814 766.30976578 219.014814 766.30697632 220.62399292 C766.15883861 271.49891982 757.13142908 320.10996154 721 358 C719.99839844 359.08087891 719.99839844 359.08087891 718.9765625 360.18359375 C705.24069782 374.58596664 687.14210362 385.04148685 669.59375 394.109375 C665.10383921 396.4383926 660.74220537 398.98902966 656.3894043 401.56347656 C652.2127704 404 652.2127704 404 650 404 C650 404.66 650 405.32 650 406 C651.92972656 406.38865234 651.92972656 406.38865234 653.8984375 406.78515625 C688.57146738 414.53010732 721.66937246 435.67449426 747 460 C747.56895996 460.54172852 748.13791992 461.08345703 748.72412109 461.64160156 C791.41361238 502.47705594 807.60517372 558.23050313 809 616 C809.35927241 658.39414396 802.99314596 702.74116913 784 741 C783.68595215 741.64437012 783.3719043 742.28874023 783.04833984 742.95263672 C764.83413361 780.01302837 734.65661146 806.23247505 699 826 C696.76993724 827.29011895 694.54078888 828.58181963 692.3125 829.875 C643.58611942 857.74231926 590.60787041 870.56427966 535.125 876.25 C534.39171478 876.32713226 533.65842957 876.40426453 532.90292358 876.48373413 C498.792391 880.00566017 464.57126356 880.29421869 430.31801152 880.23213124 C424.20955661 880.22334084 418.10110474 880.22642769 411.99264526 880.22793579 C401.45651901 880.22897498 390.92041497 880.22287234 380.38429642 880.21146011 C369.35741683 880.19954745 358.33054732 880.19191255 347.30366135 880.18975449 C346.61310006 880.18961701 345.92253878 880.18947953 345.2110514 880.18933788 C341.70276938 880.18866104 338.19448735 880.18805834 334.68620531 880.18748413 C309.96088139 880.18330471 285.23557051 880.16989045 260.51025391 880.15087891 C236.51871814 880.13245312 212.52718597 880.11831395 188.53564453 880.10986328 C187.42259959 880.1094687 187.42259959 880.1094687 186.28706889 880.10906615 C178.83399451 880.10642868 171.38092009 880.10387711 163.92784566 880.10138843 C148.75067418 880.09631862 133.57350293 880.09067613 118.39633179 880.08468628 C117.35004062 880.08427441 117.35004062 880.08427441 116.28261226 880.08385422 C69.85506816 880.06551259 23.42753683 880.03253156 -23 880 C-23 826.87 -23 773.74 -23 719 C-15.41 719 -7.82 719 0 719 C0 714.71 0 710.42 0 706 C16.17 706 32.34 706 49 706 C49 530.11 49 354.22 49 173 C25.24 173 1.48 173 -23 173 C-23 120.2 -23 67.4 -23 13 C-15.41 13 -7.82 13 0 13 C0 8.71 0 4.42 0 0 Z M329 177 C329 234.09 329 291.18 329 350 C392.03609354 359.12211688 392.03609354 359.12211688 444.8125 342 C465.26415266 318.21437963 466.3067059 285.79038156 465 256 C463.22042474 233.01772219 454.20850678 211.30594232 437.3125 195.3125 C406.86039384 170.21659433 366.26659531 177 329 177 Z M329 503 C329 569.99 329 636.98 329 706 C405.35208574 714.39027118 405.35208574 714.39027118 478 687 C497.73835325 665.64079658 506.11748394 635.86721705 505.10498047 607.25927734 C503.73944851 577.87175931 495.23927532 550.02442716 474 529 C473.29359375 528.27167969 472.5871875 527.54335938 471.859375 526.79296875 C436.13134986 492.22405893 369.52034524 503 329 503 Z " fill="#040404" transform="translate(105,80)"/>
<path d="M0 0 C7.59 0 15.18 0 23 0 C23 48.51 23 97.02 23 147 C46.76 147 70.52 147 95 147 C95 327.18 95 507.36 95 693 C87.41 693 79.82 693 72 693 C72 517.11 72 341.22 72 160 C48.24 160 24.48 160 0 160 C0 107.2 0 54.4 0 0 Z " fill="#FCF8F8" transform="translate(82,93)"/>
<path d="M0 0 C7.92 0 15.84 0 24 0 C24 48.51 24 97.02 24 147 C62.67143378 146.95038299 62.67143378 146.95038299 101.34286499 146.89883423 C102.32124768 146.89749943 102.32124768 146.89749943 103.31939567 146.89613767 C125.30754903 146.86610454 147.29569755 146.83338855 169.28384399 146.79867554 C170.00234541 146.79754191 170.72084683 146.79640829 171.46112102 146.79524031 C187.08184254 146.77058008 202.70256334 146.7454868 218.32328346 146.71994839 C225.98537894 146.70742421 233.64747459 146.69499557 241.30957031 146.68261719 C242.07197881 146.68138386 242.8343873 146.68015054 243.61989908 146.67887984 C268.2636691 146.63905905 292.90744272 146.60552832 317.55122623 146.57531309 C342.90833374 146.54418965 368.26542389 146.50661344 393.62250984 146.46109388 C397.21660786 146.45464493 400.810706 146.44826858 404.40480423 146.44193649 C405.46569995 146.44006404 405.46569995 146.44006404 406.54802791 146.43815375 C417.86295798 146.41836888 429.17788611 146.40524408 440.49282816 146.39470672 C451.91058935 146.38392796 463.3283158 146.36574778 474.74605606 146.34083296 C480.91518734 146.3275793 487.08428124 146.31732056 493.25342751 146.31578636 C525.4304815 146.30505681 557.51967205 146.03707709 589.5 142.0625 C590.97995255 141.88502091 592.45993367 141.70777996 593.93994141 141.53076172 C604.01862332 140.31016443 614.03321048 138.93870711 624 137 C625.00498535 136.81244141 626.0099707 136.62488281 627.04541016 136.43164062 C652.61970914 131.62930223 677.53009383 125.23463424 701.51269531 115.01074219 C702.95467285 114.39827637 702.95467285 114.39827637 704.42578125 113.7734375 C705.26536377 113.40653809 706.10494629 113.03963867 706.9699707 112.66162109 C709 112 709 112 711 113 C660.43900169 144.33979879 599.31902656 154.17353026 540.9375 158.6875 C539.75740356 158.77890762 539.75740356 158.77890762 538.5534668 158.87216187 C518.50013793 160.39970669 498.48264213 161.15232245 478.37246704 161.12025452 C476.29107951 161.12069194 474.20969203 161.12156998 472.12830484 161.12284368 C466.47721645 161.12505507 460.8261474 161.121114 455.17506146 161.11606562 C449.05541824 161.11171248 442.93577594 161.11321097 436.81613159 161.1139679 C426.23607771 161.11449007 415.65602931 161.11141074 405.07597733 161.10573006 C393.99121699 161.09979377 382.90645914 161.09596024 371.82169724 161.09487724 C371.13003612 161.0948085 370.438375 161.09473976 369.72575445 161.09466894 C366.21252909 161.09433056 362.69930372 161.0940292 359.18607835 161.09374207 C334.36314561 161.09164694 309.54021609 161.08492441 284.71728516 161.07543945 C260.61637387 161.06624108 236.51546347 161.05916431 212.41455078 161.05493164 C211.6704164 161.05480011 210.92628202 161.05466859 210.15959811 161.05453308 C202.68604979 161.05321445 195.21250147 161.05193865 187.73895313 161.05069422 C172.51724272 161.04815865 157.29553236 161.0453374 142.07382202 161.04234314 C141.37409794 161.04220585 140.67437386 161.04206856 139.95344601 161.04192711 C93.30229569 161.03274116 46.65114852 161.01625301 0 161 C0 107.87 0 54.74 0 0 Z " fill="#F7F3F3" transform="translate(82,799)"/>
<path d="M0 0 C14.01401763 -0.09317992 28.02796008 -0.16400678 42.04222584 -0.20724869 C48.55145621 -0.22801534 55.06047273 -0.25613107 61.56958008 -0.30175781 C67.86551161 -0.34560796 74.16123903 -0.36921895 80.45731163 -0.37950897 C82.84476618 -0.38683065 85.23221111 -0.40112531 87.61957741 -0.42292023 C115.72358843 -0.66900112 143.15960117 3.92704897 165 23 C166.45792969 24.16208984 166.45792969 24.16208984 167.9453125 25.34765625 C186.11948433 40.50622769 196.48178677 67.75819538 198.5625 90.63671875 C200.90975843 121.35064277 197.43074466 152.82415362 177.6875 177.75 C166.60782164 190.54303069 154.59850566 201.10763703 139 208 C138.34 207.67 137.68 207.34 137 207 C138.23363281 205.94425781 138.23363281 205.94425781 139.4921875 204.8671875 C161.63980511 185.47260708 173.07543324 159.07583643 175.15673828 129.79492188 C176.46851315 101.13362967 170.37046272 68.4125243 151.07397461 46.20605469 C134.91224357 28.50470461 113.89645302 17.7074799 90 15 C88.97500648 14.87985283 88.97500648 14.87985283 87.92930603 14.75727844 C78.84541141 13.80519379 69.76797909 13.77433205 60.64453125 13.68359375 C58.88904886 13.662981 57.13357095 13.64198354 55.37809753 13.62062073 C50.7931993 13.5658456 46.20825966 13.51624288 41.62329102 13.46777344 C36.93046452 13.41722966 32.23769698 13.36171651 27.54492188 13.30664062 C18.3633318 13.19960545 9.18169019 13.09804289 0 13 C0 8.71 0 4.42 0 0 Z " fill="#FBF7F7" transform="translate(434,570)"/>
<path d="M0 0 C11.50208255 -0.14015626 23.0039559 -0.24619994 34.50672436 -0.31087303 C39.85025273 -0.34194185 45.19318913 -0.38395715 50.53637695 -0.45263672 C55.71064727 -0.51871486 60.88435499 -0.5538888 66.05901527 -0.56926346 C68.01504669 -0.58019357 69.97105379 -0.60152734 71.92683983 -0.63438034 C94.37206392 -0.99578074 114.71669336 4.08076857 132 19 C132.66644531 19.57105469 133.33289063 20.14210938 134.01953125 20.73046875 C147.31372324 33.02825187 153.6915153 49.7241429 157.54150391 66.99951172 C157.85240035 68.35600026 158.18894441 69.70681697 158.54833984 71.05126953 C160.20276846 77.54398272 160.30681918 83.82325707 160.25 90.5 C160.24323242 91.64911865 160.23646484 92.7982373 160.22949219 93.98217773 C159.93194649 118.6594412 156.01702378 146.2393131 138.81640625 165.28125 C132.42147963 171.33236336 124.39614462 177.13340585 116 180 C115.01 179.67 114.02 179.34 113 179 C113.44730469 178.5153125 113.89460937 178.030625 114.35546875 177.53125 C135.41362239 154.18319052 136.31048164 121.8764612 135 92 C133.21627846 68.96417512 124.20653465 46.13680169 106.4375 30.8125 C88.58112598 17.35111587 68.67853618 13.96780685 46.77734375 13.68359375 C45.42256606 13.66297758 44.06779413 13.64198005 42.71302795 13.62062073 C39.17697868 13.56588074 35.64087609 13.51626311 32.10473633 13.46777344 C28.48449049 13.41720337 24.86432041 13.36170419 21.24414062 13.30664062 C14.16282514 13.1996487 7.08143898 13.09853374 0 13 C0 8.71 0 4.42 0 0 Z " fill="#FAF6F6" transform="translate(434,244)"/>
<path d="M0 0 C-2.0780065 1.17713663 -4.16151783 2.34171974 -6.25 3.5 C-7.12978516 4.00080078 -7.12978516 4.00080078 -8.02734375 4.51171875 C-11.38582107 6.36076806 -13.06645784 7 -17 7 C-17 6.34 -17 5.68 -17 5 C-14.73392948 3.96724659 -12.46318061 2.94866449 -10.1875 1.9375 C-9.22360352 1.49567383 -9.22360352 1.49567383 -8.24023438 1.04492188 C-3.33984375 -1.11328125 -3.33984375 -1.11328125 0 0 Z " fill="#F3EFEF" transform="translate(768,478)"/>
</svg>
