<?xml version="1.0" encoding="UTF-8"?>
<svg version="1.1" xmlns="http://www.w3.org/2000/svg" width="1000" height="1000">
<path d="M0 0 C0.67888032 -0.00292886 1.35776064 -0.00585773 2.05721309 -0.00887535 C4.33514028 -0.01625984 6.61279939 -0.00940033 8.89072526 -0.0026266 C10.54615298 -0.00501621 12.20157964 -0.00828124 13.85700411 -0.0123432 C18.42546583 -0.02099058 22.99384575 -0.01712542 27.56230881 -0.01128747 C32.5251249 -0.00712837 37.48792576 -0.01451275 42.45073819 -0.02043998 C51.15521075 -0.02921912 59.85965978 -0.03050802 68.56413567 -0.02693671 C81.5078661 -0.02164005 94.45157367 -0.02771453 107.39530161 -0.03601964 C131.18215029 -0.05086176 154.96899014 -0.05310731 178.75584243 -0.05069926 C182.12704248 -0.05036082 185.49824253 -0.05003873 188.86944258 -0.04973358 C189.539029 -0.04967254 190.20861541 -0.04961149 190.89849232 -0.0495486 C205.73228818 -0.04827713 220.56608261 -0.0508773 235.39987804 -0.05425965 C238.78615362 -0.05503039 242.17242919 -0.05577511 245.55870477 -0.05652466 C246.91773563 -0.05682635 248.27676649 -0.05712823 249.63579736 -0.0574303 C250.64626206 -0.05765482 250.64626206 -0.05765482 251.67714019 -0.05788388 C253.03972125 -0.05818741 254.40230231 -0.05849209 255.76488337 -0.05879792 C294.43327021 -0.06747238 333.10165579 -0.07211382 371.77004349 -0.06785029 C372.48622534 -0.06777223 373.20240719 -0.06769418 373.94029152 -0.06761376 C381.92665029 -0.06674094 389.91300904 -0.06581168 397.89936779 -0.06486312 C398.62043133 -0.06477761 399.34149487 -0.0646921 400.08440883 -0.064604 C406.07618252 -0.06389317 406.07618252 -0.06389317 408.83253657 -0.06356178 C454.95804076 -0.05802553 501.08352493 -0.06556889 547.2090255 -0.08433264 C558.83148678 -0.08905477 570.45394807 -0.09373524 582.07640946 -0.09816951 C582.7920273 -0.09844283 583.50764515 -0.09871615 584.24494838 -0.09899775 C606.29634959 -0.10736743 628.34774914 -0.11204856 650.39915192 -0.11287707 C651.0913447 -0.11290344 651.78353748 -0.1129298 652.49670579 -0.11295697 C667.6910344 -0.11349772 682.88536287 -0.11312537 698.07969143 -0.11191725 C703.51630225 -0.11149162 708.95291307 -0.1111265 714.3895239 -0.11078781 C715.74203946 -0.11070251 717.09455501 -0.11061358 718.44707057 -0.11052099 C740.00832829 -0.10907155 761.56957242 -0.11620279 783.13082687 -0.12752496 C805.446758 -0.13916754 827.76266487 -0.13974605 850.0785961 -0.12768153 C862.94998976 -0.12103495 875.82131952 -0.12272529 888.69270812 -0.13627005 C897.28241788 -0.1444827 905.87207951 -0.14185866 914.46178532 -0.13029478 C919.36120318 -0.12400663 924.26049586 -0.12251879 929.15990673 -0.13415811 C933.61487251 -0.14464459 938.06960626 -0.14138711 942.52455939 -0.12705358 C944.12822831 -0.12431953 945.73191562 -0.12663648 947.3355673 -0.13456073 C964.98126025 -0.21582039 964.98126025 -0.21582039 971.33451378 5.189349 C971.88236535 5.869974 972.43021691 6.550599 972.99467003 7.251849 C973.84351769 8.2727865 973.84351769 8.2727865 974.70951378 9.314349 C977.30951039 13.05231513 977.18323292 16.33696701 977.1859712 20.75911385 C977.18863371 21.76145287 977.18863371 21.76145287 977.19135002 22.78404117 C977.19611536 25.04367426 977.1937109 27.3032442 977.19139111 29.56288034 C977.19334298 31.19805903 977.19573142 32.83323725 977.19851908 34.46841472 C977.20494285 38.99461398 977.20507882 43.52079554 977.20424167 48.04699848 C977.2044107 52.9587924 977.21031155 57.87057989 977.21548253 62.78237063 C977.22482614 72.53900024 977.22873353 82.29562531 977.2310015 92.05225884 C977.23395896 103.73253262 977.24265362 115.41280036 977.25141578 127.09307098 C977.27227887 155.32694966 977.28273586 183.56082976 977.29154539 211.79471431 C977.29552445 224.47628538 977.30044326 237.15785603 977.30544112 249.83942673 C977.32340593 295.46318858 977.33878597 341.0869508 977.34620015 386.71071569 C977.34678413 390.29497402 977.34738139 393.87923235 977.34797777 397.46349068 C977.34809589 398.17450169 977.34821401 398.88551269 977.34833571 399.61806949 C977.34953311 406.82174465 977.35074187 414.02541981 977.35196824 421.22909496 C977.35221347 422.67346538 977.35245733 424.1178358 977.35269981 425.56220621 C977.36049102 471.95888276 977.38287763 518.35553401 977.41537624 564.7521995 C977.43871684 598.08566041 977.46027117 631.4191163 977.46738255 664.75258523 C977.46752957 665.43787357 977.46767659 666.1231619 977.46782807 666.82921655 C977.47101265 681.87187802 977.47306371 696.91453945 977.47405562 711.95720123 C977.47447037 718.00952126 977.47502527 724.06184129 977.47561753 730.11416131 C977.47570853 731.10775909 977.47570853 731.10775909 977.47580137 732.12142954 C977.47788103 754.13265063 977.49336565 776.14383444 977.51445937 798.15504364 C977.53467769 819.59221803 977.54021363 841.02935677 977.53068874 862.46653894 C977.52545834 875.21372968 977.53142367 887.96080201 977.55322341 900.7079758 C977.56667457 909.21372033 977.5657051 917.71938285 977.55282145 926.22512809 C977.54588682 931.07749468 977.54538406 935.92963397 977.56238154 940.78198078 C977.57770833 945.19314466 977.57474687 949.60389711 977.55697126 954.01504834 C977.55381192 955.60396973 977.55741003 957.192922 977.56846301 958.78180809 C977.67028685 974.43427091 977.67028685 974.43427091 971.6806856 980.68934159 C966.40525079 985.52997328 961.07624222 986.5016227 954.11434007 986.50369799 C953.43545975 986.50662686 952.75657943 986.50955572 952.05712698 986.51257334 C949.77919979 986.51995784 947.50154068 986.51309833 945.22361481 986.50632459 C943.56818708 986.5087142 941.91276043 986.51197923 940.25733596 986.51604119 C935.68887423 986.52468858 931.12049431 986.52082341 926.55203126 986.51498547 C921.58921516 986.51082636 916.62641431 986.51821074 911.66360188 986.52413797 C902.95912932 986.53291712 894.25468028 986.53420601 885.5502044 986.5306347 C872.60647397 986.52533804 859.6627664 986.53141253 846.71903846 986.53971763 C822.93218978 986.55455975 799.14534993 986.5568053 775.35849763 986.55439725 C771.98729759 986.55405881 768.61609754 986.55373672 765.24489748 986.55343157 C764.57531107 986.55337053 763.90572466 986.55330948 763.21584775 986.55324659 C748.38205188 986.55197512 733.54825746 986.55457529 718.71446202 986.55795764 C715.32818645 986.55872838 711.94191087 986.5594731 708.5556353 986.56022265 C707.19660443 986.56052434 705.83757357 986.56082622 704.47854271 986.56112829 C703.46807801 986.56135281 703.46807801 986.56135281 702.43719988 986.56158187 C701.07461882 986.5618854 699.71203776 986.56219008 698.3494567 986.56249591 C659.68106985 986.57117037 621.01268428 986.57581181 582.34429657 986.57154828 C581.62811472 986.57147023 580.91193287 986.57139217 580.17404854 986.57131175 C572.18768978 986.57043893 564.20133103 986.56950967 556.21497227 986.56856111 C555.49390873 986.56847561 554.77284519 986.5683901 554.02993124 986.568302 C548.03815753 986.56759116 548.03815753 986.56759116 545.28180349 986.56725977 C499.15629931 986.56172352 453.03081513 986.56926688 406.90531456 986.58803064 C395.28285329 986.59275276 383.660392 986.59743323 372.03793061 986.6018675 C371.32231276 986.60214082 370.60669492 986.60241414 369.86939168 986.60269575 C347.81799047 986.61106542 325.76659093 986.61574655 303.71518815 986.61657506 C303.02299537 986.61660143 302.33080259 986.6166278 301.61763427 986.61665496 C286.42330567 986.61719571 271.2289772 986.61682336 256.03464863 986.61561525 C250.59803781 986.61518961 245.16142699 986.61482449 239.72481617 986.61448581 C238.37230061 986.6144005 237.01978505 986.61431157 235.6672695 986.61421899 C214.10601178 986.61276955 192.54476765 986.61990078 170.98351319 986.63122295 C148.66758206 986.64286553 126.3516752 986.64344404 104.03574397 986.63137952 C91.1643503 986.62473295 78.29302055 986.62642328 65.42163195 986.63996804 C56.83192219 986.64818069 48.24226056 986.64555665 39.65255475 986.63399277 C34.75313689 986.62770462 29.85384421 986.62621679 24.95443334 986.6378561 C20.49946756 986.64834259 16.04473381 986.6450851 11.58978068 986.63075158 C9.98611175 986.62801752 8.38242444 986.63033447 6.77877276 986.63825872 C-10.86692018 986.71951838 -10.86692018 986.71951838 -17.22017372 981.314349 C-17.76802528 980.633724 -18.31587684 979.953099 -18.88032997 979.251849 C-19.4462284 978.571224 -20.01212684 977.890599 -20.59517372 977.189349 C-23.19517032 973.45138286 -23.06889285 970.16673098 -23.07163113 965.74458414 C-23.07340614 965.07635813 -23.07518115 964.40813211 -23.07700995 963.71965682 C-23.08177529 961.46002373 -23.07937084 959.2004538 -23.07705104 956.94081765 C-23.07900291 955.30563896 -23.08139135 953.67046075 -23.08417901 952.03528327 C-23.09060279 947.50908401 -23.09073875 942.98290245 -23.0899016 938.45669951 C-23.09007064 933.54490559 -23.09597149 928.6331181 -23.10114247 923.72132736 C-23.11048607 913.96469775 -23.11439347 904.20807268 -23.11666143 894.45143916 C-23.1196189 882.77116537 -23.12831355 871.09089763 -23.13707571 859.41062701 C-23.1579388 831.17674833 -23.1683958 802.94286823 -23.17720532 774.70898368 C-23.18118439 762.02741261 -23.18610319 749.34584196 -23.19110105 736.66427126 C-23.20906586 691.04050941 -23.2244459 645.41674719 -23.23186009 599.7929823 C-23.23244406 596.20872397 -23.23304133 592.62446564 -23.2336377 589.04020731 C-23.23375582 588.3291963 -23.23387394 587.6181853 -23.23399564 586.8856285 C-23.23519305 579.68195334 -23.2364018 572.47827818 -23.23762817 565.27460303 C-23.23787341 563.83023261 -23.23811726 562.38586219 -23.23835974 560.94149178 C-23.24615096 514.54481524 -23.26853756 468.14816398 -23.30103617 421.75149849 C-23.32437677 388.41803758 -23.34593111 355.08458169 -23.35304248 321.75111276 C-23.3531895 321.06582442 -23.35333653 320.38053609 -23.353488 319.67448144 C-23.35667258 304.63181997 -23.35872364 289.58915854 -23.35971555 274.54649677 C-23.3601303 268.49417673 -23.3606852 262.4418567 -23.36127746 256.38953668 C-23.36133813 255.72713816 -23.3613988 255.06473965 -23.36146131 254.38226845 C-23.36354096 232.37104736 -23.37902559 210.35986355 -23.40011931 188.34865436 C-23.42033762 166.91147996 -23.42587356 145.47434122 -23.41634867 124.03715906 C-23.41111827 111.28996831 -23.4170836 98.54289598 -23.43888334 85.79572219 C-23.4523345 77.28997766 -23.45136503 68.78431514 -23.43848139 60.2785699 C-23.43154675 55.42620331 -23.431044 50.57406402 -23.44804148 45.72171721 C-23.46336826 41.31055333 -23.46040681 36.89980088 -23.4426312 32.48864965 C-23.43947185 30.89972826 -23.44306996 29.31077599 -23.45412294 27.7218899 C-23.55594678 12.06942709 -23.55594678 12.06942709 -17.56634553 5.8143564 C-12.29091072 0.97372471 -6.96190215 0.00207529 0 0 Z " fill="#0952F7" transform="translate(22.942829966545105,6.748151004314423)"/>
<path d="M0 0 C265.98 0 531.96 0 806 0 C806 265.98 806 531.96 806 806 C754.52 806 703.04 806 650 806 C649.67 628.46 649.34 450.92 649 268 C472.45 444.55 295.9 621.1 114 803 C109.89564478 799.48198124 106.03184537 796.15673135 102.24794006 792.36819458 C101.37165955 791.49328873 100.49537903 790.61838287 99.59254456 789.71696472 C98.64506401 788.76594656 97.69763214 787.8148799 96.75024414 786.86376953 C95.73466124 785.84790408 94.71885714 784.83225973 93.70285034 783.81681824 C90.96350601 781.0777592 88.22724204 778.33564198 85.49154592 775.59293985 C82.62527073 772.72038635 79.75613737 769.85069044 76.88731384 766.98068237 C71.46335177 761.55362014 66.04194248 756.12401527 60.62145942 750.69347847 C54.44685871 744.50767567 48.26939661 738.32473376 42.09169972 732.14202332 C29.39129364 719.43118265 16.6944619 706.71677706 4 694 C5.55517568 690.28012508 7.83214368 687.92368631 10.67314148 685.09307861 C11.15177055 684.61344626 11.63039961 684.13381391 12.12353259 683.63964725 C13.72698029 682.03524772 15.33746275 680.43810265 16.94799805 678.84082031 C18.09991892 677.69110102 19.2513921 676.54093304 20.40245056 675.39035034 C22.88227142 672.91346311 25.36521694 670.43976647 27.85062218 667.96848297 C31.78533938 664.05604763 35.7129423 660.13652246 39.63960266 656.21600342 C45.85708477 650.00990691 52.07921787 643.80849755 58.30339128 637.6091125 C69.43328784 626.52347774 80.55772085 615.43236747 91.6768325 604.33591533 C95.5760525 600.44507196 99.47806353 596.55705619 103.38238657 592.67133379 C105.81962789 590.24479392 108.25479153 587.81617666 110.68946266 585.38705826 C111.8127995 584.26716967 112.93700591 583.14815249 114.06217957 582.03010941 C115.60780854 580.49405396 117.15020934 578.95482245 118.69194031 577.41485596 C119.5530627 576.557253 120.41418509 575.69965004 121.30140209 574.81605911 C123.34990091 572.67839579 125.29010517 570.52497475 127.21756208 568.28278708 C130.7367693 564.24994683 134.42613475 560.43512161 138.21760464 556.65934753 C138.91284964 555.96294869 139.60809464 555.26654985 140.32440767 554.54904801 C142.64493576 552.22588185 144.96900055 549.90628736 147.29307556 547.58666992 C148.97812413 545.90118508 150.66295284 544.21548042 152.34758097 542.52957535 C156.00564212 538.86974636 159.66524652 535.21146797 163.326231 531.55456352 C168.76992234 526.11692209 174.21072843 520.67640052 179.65095729 515.23529524 C188.80359698 506.08134338 197.95855752 496.92971597 207.114851 487.77941895 C216.17845804 478.72173242 225.24102714 469.66300946 234.30221748 460.60290527 C235.14786043 459.75736544 235.14786043 459.75736544 236.01058707 458.89474399 C238.87373732 456.03193208 241.73686911 453.16910168 244.59999377 450.30626416 C264.87040776 430.03794962 285.14313837 409.77195368 305.41723633 389.50732422 C325.11112009 369.82262736 344.80394288 350.13687006 364.49536133 330.44970703 C365.73399539 329.21134361 366.97262948 327.97298023 368.2112636 326.73461688 C378.27595901 316.67211029 388.3405813 306.60953056 398.40518586 296.5469331 C444.93350341 250.02799971 491.46716195 203.51441244 538 157 C360.46 156.67 182.92 156.34 0 156 C0 104.52 0 53.04 0 0 Z " fill="#FDFEFE" transform="translate(97,97)"/>
</svg>
