<?xml version="1.0" standalone="no"?>
<!DOCTYPE svg PUBLIC "-//W3C//DTD SVG 20010904//EN"
 "http://www.w3.org/TR/2001/REC-SVG-20010904/DTD/svg10.dtd">
<svg version="1.0" xmlns="http://www.w3.org/2000/svg"
 width="1000.000000pt" height="1000.000000pt" viewBox="0 0 1000.000000 1000.000000"
 preserveAspectRatio="xMidYMid meet">

<g transform="translate(0.000000,1000.000000) scale(0.100000,-0.100000)"
fill="#000000" stroke="none">
<path d="M0 5000 l0 -5000 5000 0 5000 0 0 5000 0 5000 -5000 0 -5000 0 0
-5000z m6200 4181 c755 -65 1292 -222 1706 -499 473 -316 735 -766 795 -1366
17 -175 7 -603 -20 -773 -46 -301 -126 -524 -259 -727 -96 -145 -299 -331
-487 -446 -75 -46 -285 -151 -375 -188 l-55 -23 130 -43 c360 -120 645 -288
889 -525 186 -182 297 -335 402 -556 143 -301 205 -611 205 -1025 -1 -1129
-447 -1841 -1376 -2192 -365 -138 -757 -217 -1320 -265 -181 -15 -452 -17
-2793 -20 l-2592 -4 2 808 3 808 358 3 357 2 0 2720 0 2720 -357 2 -358 3 -3
803 -2 803 2507 -4 c1799 -3 2546 -7 2643 -16z"/>
<path d="M4340 6635 l0 -926 493 4 c471 4 495 5 571 26 262 74 414 230 481
496 62 244 60 557 -5 770 -28 90 -88 202 -151 281 -90 114 -230 200 -394 246
-76 20 -104 22 -537 26 l-458 4 0 -927z"/>
<path d="M4340 3224 l0 -1075 583 4 c549 3 586 5 652 24 401 116 661 407 736
823 19 101 16 340 -5 460 -86 491 -405 786 -896 830 -63 5 -330 10 -592 10
l-478 0 0 -1076z"/>
</g>
</svg>
