<?xml version="1.0" encoding="UTF-8"?>
<svg version="1.1" xmlns="http://www.w3.org/2000/svg" width="1000" height="1000">
<path d="M0 0 C91.46709667 -0.06623841 91.46709667 -0.06623841 136.82015991 -0.08468628 C137.49722671 -0.08496239 138.17429352 -0.08523851 138.87187749 -0.08552299 C153.5931636 -0.09151148 168.31444985 -0.09705146 183.0357363 -0.10213066 C190.25705991 -0.10462491 197.47838348 -0.10721808 204.69970703 -0.10986328 C205.41824205 -0.1101248 206.13677707 -0.11038632 206.87708588 -0.11065576 C230.08635527 -0.11914923 253.2956148 -0.13414975 276.50487824 -0.15259444 C300.3937525 -0.17154435 324.28262132 -0.18379039 348.17150297 -0.18782998 C351.56052648 -0.18840613 354.94954997 -0.1890574 358.33857346 -0.18975449 C359.00545621 -0.18988933 359.67233897 -0.19002418 360.3594303 -0.19016311 C371.66541848 -0.19265291 382.97138579 -0.20325283 394.27736764 -0.21583293 C404.3826237 -0.22649656 414.48786535 -0.22957969 424.59312661 -0.22700275 C430.40226797 -0.22573587 436.21136019 -0.22752083 442.02049255 -0.23841095 C525.6356653 -0.38719969 625.31043112 2.43888759 694 57 C695.24910156 57.96486328 695.24910156 57.96486328 696.5234375 58.94921875 C702.59233306 63.70163081 708.35818743 68.74985045 714 74 C714.66644531 74.61230469 715.33289063 75.22460938 716.01953125 75.85546875 C747.72874769 106.14390563 761.69286615 149.48288824 766 192 C766.07734375 192.7312207 766.1546875 193.46244141 766.234375 194.21582031 C768.70794595 219.08234368 766.74198563 245.38567465 763 270 C762.80132324 271.31581055 762.80132324 271.31581055 762.59863281 272.65820312 C758.02326358 301.52845064 746.91466571 328.60009838 728 351 C727.33871094 351.78503906 726.67742188 352.57007813 725.99609375 353.37890625 C721.66873901 358.38373336 717.13239686 362.82938109 712 367 C711.08863281 367.74894531 710.17726563 368.49789063 709.23828125 369.26953125 C696.23421095 379.63036517 681.97616513 387.93563222 666.97753906 395.06054688 C664.90430369 396.04546165 662.83897137 397.04592203 660.7734375 398.046875 C659.41199423 398.69903657 658.0500329 399.35011801 656.6875 400 C656.05884033 400.30325195 655.43018066 400.60650391 654.7824707 400.91894531 C651.98220084 402.23317647 650.13645389 403 647 403 C647 403.66 647 404.32 647 405 C647.54817383 405.1124707 648.09634766 405.22494141 648.66113281 405.34082031 C676.51209996 411.26226582 703.16058044 425.31831727 726 442 C726.66999023 442.4851709 727.33998047 442.9703418 728.03027344 443.47021484 C733.86712002 447.72706157 739.44268201 452.12042437 744.4140625 457.3828125 C746.08124313 459.08284398 747.84718407 460.55268979 749.6875 462.0625 C787.68135481 495.07835457 804.46168471 547.93651 808.25 596.5625 C812.33792704 657.40094401 802.98925879 727.63913592 762.20703125 775.4921875 C761.47871094 776.31976562 760.75039063 777.14734375 760 778 C759.28199219 778.82757812 758.56398438 779.65515625 757.82421875 780.5078125 C700.54850001 845.41351153 609.46968383 860.49084859 527.26245618 865.82075322 C503.61064757 867.26240092 479.98485165 867.27472714 456.2965138 867.23213124 C450.1498502 867.2233526 444.00318973 867.22642689 437.85652161 867.22793579 C427.25105883 867.22897569 416.64562351 867.22286525 406.04016876 867.21146011 C394.93906789 867.19955304 383.83797702 867.19191365 372.73686981 867.18975449 C372.04201201 867.18961701 371.34715421 867.18947953 370.63124011 867.18933788 C367.10122003 867.18866105 363.57119995 867.18805834 360.04117987 867.18748413 C335.15391135 867.18330321 310.26665578 867.16988466 285.37939453 867.15087891 C261.22867908 867.13245716 237.07796718 867.11831599 212.92724609 867.10986328 C211.80708332 867.1094687 211.80708332 867.1094687 210.664291 867.10906615 C203.16364717 867.10642871 195.66300332 867.10387714 188.16235945 867.10138843 C172.88792287 867.09631844 157.61348653 867.09067594 142.33905029 867.08468628 C141.6370318 867.0844117 140.93501331 867.08413712 140.21172154 867.08385422 C93.4744744 867.06550839 46.73723992 867.03252801 0 867 C0 813.54 0 760.08 0 705 C23.76 705 47.52 705 72 705 C72 525.48 72 345.96 72 161 C48.24 161 24.48 161 0 161 C0 107.87 0 54.74 0 0 Z M329 164 C329 225.05 329 286.1 329 349 C402.38265604 355.65150653 402.38265604 355.65150653 467.234375 328.984375 C486.03159646 309.89572375 488.50487411 279.512902 488.35327148 254.25488281 C487.87410114 229.24184746 482.02604953 206.21231659 464.625 187.4375 C463.75875 186.633125 462.8925 185.82875 462 185 C461.42378906 184.40703125 460.84757813 183.8140625 460.25390625 183.203125 C428.00881495 151.75044615 363.05014181 164 329 164 Z M329 490 C329 560.95 329 631.9 329 705 C355.73 705.0928125 355.73 705.0928125 383 705.1875 C388.59710938 705.21481201 394.19421875 705.24212402 399.9609375 705.27026367 C405.04076874 705.28030575 405.04076874 705.28030575 410.12060547 705.28633118 C412.35825396 705.29089502 414.59589574 705.30135562 416.83349609 705.31672668 C448.65048177 705.52409452 475.72144275 698.82014874 499 676 C516.62414904 657.99709154 527.0504261 632.14306541 528 607 C528.03996094 606.08089844 528.07992187 605.16179687 528.12109375 604.21484375 C528.78016985 573.54842049 521.49289432 543.49085281 501 520 C500.47019531 519.38640625 499.94039062 518.7728125 499.39453125 518.140625 C480.52488923 497.82664002 453.4486924 491.88919231 427 490 C394.66 490 362.32 490 329 490 Z " fill="#FEFEFF" transform="translate(105,80)"/>
</svg>
