<?xml version="1.0" standalone="no"?>
<!DOCTYPE svg PUBLIC "-//W3C//DTD SVG 20010904//EN"
 "http://www.w3.org/TR/2001/REC-SVG-20010904/DTD/svg10.dtd">
<svg version="1.0" xmlns="http://www.w3.org/2000/svg"
 width="1000.000000pt" height="1000.000000pt" viewBox="0 0 1000.000000 1000.000000"
 preserveAspectRatio="xMidYMid meet">

<g transform="translate(0.000000,1000.000000) scale(0.100000,-0.100000)"
fill="#000000" stroke="none">
<path d="M1050 8395 l0 -795 360 0 360 0 0 -2730 0 -2730 -360 0 -360 0 0
-800 0 -801 2643 4 c2834 3 2715 1 3117 53 461 58 873 174 1194 335 293 147
538 348 709 582 195 266 324 602 381 992 40 270 45 652 12 895 -107 779 -556
1345 -1314 1655 -59 24 -146 55 -194 70 -49 15 -88 30 -88 34 0 3 46 26 103
50 288 123 553 303 705 480 235 272 345 587 383 1091 14 184 6 490 -16 640
-142 954 -827 1521 -2066 1709 -376 57 -233 55 -3011 58 l-2558 4 0 -796z
m4315 -868 c140 -44 218 -90 315 -187 118 -118 176 -222 220 -396 53 -205 43
-544 -22 -752 -57 -186 -166 -321 -323 -400 -160 -80 -261 -92 -787 -92 l-428
0 0 931 0 930 468 -3 467 -4 90 -27z m131 -3242 c530 -86 834 -481 834 -1086
0 -555 -364 -984 -890 -1049 -48 -6 -303 -10 -592 -10 l-508 0 0 1080 0 1080
533 0 c420 0 551 -3 623 -15z"/>
</g>
</svg>
